# Blender v2.79 (sub 0) OBJ File: ''
# www.blender.org
mtllib untitled.mtl
o Cube
v 1.000000 -1.000000 -1.000000
v 1.000000 -1.000000 1.000000
v -1.000000 -1.000000 1.000000
v -1.000000 -1.000000 -1.000000
v 1.000000 1.000000 -0.999999
v -1.000000 1.000000 -1.000000
vt 0.333333 0.585786
vt 0.000000 1.000000
vt 0.000000 0.585787
vt 1.000000 0.000000
vt 1.000000 0.414213
vt 0.666667 0.000000
vt 0.666667 0.000000
vt 0.333334 0.414214
vt 0.333334 0.000000
vt 0.000000 0.585786
vt 0.333333 0.000000
vt 0.333334 0.585786
vt 0.666667 0.414214
vt 0.666667 0.828427
vt 0.333333 1.000000
vt 0.000000 0.000000
vn 0.0000 -1.0000 0.0000
vn 1.0000 -0.0000 0.0000
vn 0.0000 0.0000 -1.0000
vn -0.0000 0.7071 0.7071
vn -1.0000 0.0000 -0.0000
usemtl Material
s off
f 2/1/1 4/2/1 1/3/1
f 1/4/2 5/5/2 2/6/2
f 1/7/3 6/8/3 5/9/3
f 2/10/4 6/11/4 3/12/4
f 6/8/5 4/13/5 3/14/5
f 2/1/1 3/15/1 4/2/1
f 1/7/3 4/13/3 6/8/3
f 2/10/4 5/16/4 6/11/4
